<svg id="blackhorseflexpay" role="img" aria-labelledby="pi-blackhorseflexpay" width="38" height="24" viewBox="0 0 38 24" fill="none" xmlns="http://www.w3.org/2000/svg"><title id="pi-blackhorseflexpay">Black Horse Flex Pay</title><path opacity=".07" d="M35 0H3C1.3 0 0 1.3 0 3v18c0 1.7 1.4 3 3 3h32c1.7 0 3-1.3 3-3V3c0-1.7-1.4-3-3-3z"/><path fill="#fff" d="M35 1c1.1 0 2 .9 2 2v18c0 1.1-.9 2-2 2H3c-1.1 0-2-.9-2-2V3c0-1.1.9-2 2-2h32"/><g transform="translate(2, 0)"><path d="M28.636 16.235H5.364C2.954 16.235 1 14.338 1 12s1.955-4.235 4.364-4.235h23.272C31.046 7.765 33 9.662 33 12s-1.955 4.235-4.364 4.235z" fill="#000"/><path d="M4.996 13.361a.745.745 0 01-.483-.164l-.023.124h-.553v-.096c.018-.186.024-.344.024-.457v-2.372h.669v.836a.676.676 0 01.396-.107.76.76 0 01.54.22c.204.203.32.525.315.903 0 .655-.361 1.113-.885 1.113zm-.372-.7c.082.079.163.113.262.113.221 0 .337-.181.337-.531 0-.249-.058-.548-.331-.548-.088 0-.163.034-.268.107v.859zM6.956 13.316h-.675v-2.92h.675v2.92zM8.476 11.859c0-.175-.04-.243-.238-.243a.516.516 0 00-.437.265l-.413-.254c.274-.728 1.798-.672 1.751.17.012.265-.04 1.27.059 1.513h-.664l-.029-.119a1.09 1.09 0 01-.54.142c-.396 0-.64-.238-.64-.622 0-.463.377-.745 1.151-.852zm.006.463c-.57.096-.57.294-.57.378 0 .102.04.141.145.141.14 0 .274-.062.425-.192v-.327zM10.491 13.35c-.634 0-.971-.384-.971-1.113 0-.678.384-1.112.971-1.112.425 0 .74.203.873.57l.046.09-.587.243-.04-.085c-.082-.197-.164-.237-.268-.237-.1 0-.332 0-.332.57 0 .509.215.509.308.509.157 0 .262-.074.338-.237l.034-.119.553.277-.035.085c-.157.361-.46.559-.89.559zM13.736 13.321h-.745l-.413-.824-.11.136v.688h-.675v-2.925h.675v1.384l.477-.621h.78l-.681.807.692 1.355zM15.804 13.327h-.471V11.87c0-.27-.087-.322-.25-.322-.18 0-.355.08-.518.243v1.53h-.471v-2.925h.471v.932a.932.932 0 01.593-.203c.198 0 .367.056.478.17.11.112.174.276.168.473v1.56zM17.12 13.355c-.593 0-.948-.418-.948-1.118 0-.706.343-1.112.948-1.112s.949.406.949 1.118c0 .694-.355 1.112-.949 1.112zm0-1.812c-.384 0-.465.378-.465.694 0 .463.157.7.465.7.303 0 .46-.231.46-.694 0-.458-.157-.695-.46-.7zM18.924 13.327h-.483V11.16h.483v.203a.639.639 0 01.5-.226h.076l.076.017v.452h-.128c-.239 0-.407.175-.524.536v1.186zM20.601 13.344c-.36 0-.669-.152-.855-.412l-.047-.08.384-.287.053.09c.15.186.314.277.506.277.198 0 .314-.09.314-.243 0-.136-.058-.17-.396-.26a.957.957 0 01-.122-.028l-.046-.017c-.396-.119-.588-.322-.588-.633 0-.372.29-.632.71-.632.326 0 .587.119.809.367l.04.085-.314.305-.076-.08c-.145-.18-.285-.253-.46-.253-.15 0-.25.073-.25.192 0 .05.024.101.065.13.058.045.14.067.238.095l.076.023c.058.011.122.028.198.05.378.12.558.312.587.628 0 .418-.326.683-.826.683zM22.599 13.338c-.576 0-.908-.406-.908-1.112 0-.69.344-1.113.89-1.113.553 0 .89.418.89 1.09v.181h-1.297c.006.345.18.553.46.553.204 0 .372-.107.489-.304l.046-.085.384.203-.052.08c-.18.338-.483.507-.902.507zm-.419-1.372h.791c-.035-.265-.174-.418-.39-.418-.284 0-.378.215-.4.418zM30.067 9.6H25.12v4.8h4.946V9.6z" fill="#fff"/><path d="M27.163 13.745c.21 0 .058-.22-.058-.271-.11-.08-.175-.237-.28-.339-.087-.09-.226-.282-.046-.344.157-.074.245-.243.303-.39.366.102.838.073 1.192-.062.297-.102.565-.463.704.022.035.09.035.215.082.243-.163.164.221.435.256.175.018-.254-.227-.514-.343-.785-.076-.175-.285-.067-.425-.084-.017 0-.023-.012 0-.012.087-.01.25-.124.355-.113.105.012.273.187.343.322.035.085.11.029.093.085-.052.124.134.198.256.158.041-.017.047-.062.041-.09-.11-.237-.378-.39-.541-.61-.134-.158-.367-.062-.547-.057-.052-.022-.058-.113.006-.118.023-.04 0-.09-.03-.119-.087-.096.117-.062.134-.152-.162-.119-.145-.09-.04-.232-.052-.017-.047-.05-.064-.09-.035-.057-.105-.073-.116-.13.046-.164-.088-.034-.123-.175-.011-.068-.081-.102-.145-.119-.076-.13-.093.034-.175-.062-.029-.05-.105-.04-.122-.09 0-.017-.029-.05-.04-.023-.018.023.023.153-.024.102-.04-.068-.099-.05-.064.011.105.113-.076.158-.076.26.018.056-.052.09-.07.141-.029.102-.162.175-.116.294.006.068.076.073.122.09.105.045.1-.101.175-.13.058-.045.163-.107.163.023-.006.215-.204.474-.448.559-.314.13-.68-.141-.983.073-.227.023-.28-.26-.466-.322a.387.387 0 00-.424.153c-.187.26.005.548.25.694.093.114-.17.125-.134.289.017.084.134.135.18.062-.07-.034-.029-.08.024-.102.302-.085.238-.333.034-.497-.04-.045-.098-.085-.058-.164.076-.135.43-.011.442.023-.21.203.035.565-.197.734-.111.073-.18.152-.163.271.006.226-.053.401-.041.633.058.079.081.056.099.112.012.029 0 .153.087.153h.151c.053 0 .1-.028.088-.08-.018-.123-.186-.157-.204-.242-.052-.265.023-.689.332-.689-.262.277.308.48.314.78.011.073.087.033.099.073.011.04.005.158.104.158h.134z" fill="#000"/></g></svg>