<svg xmlns="http://www.w3.org/2000/svg" role="img" viewBox="0 0 38 24" width="38" height="24" aria-labelledby="pi-bobpayeft"><title id="pi-bobpayeft">Bob Pay</title><path fill="#000" opacity=".07" d="M35 0H3C1.3 0 0 1.3 0 3v18c0 1.7 1.4 3 3 3h32c1.7 0 3-1.3 3-3V3c0-1.7-1.4-3-3-3z"/><path fill="#fff" d="M35 1c1.1 0 2 .9 2 2v18c0 1.1-.9 2-2 2H3c-1.1 0-2-.9-2-2V3c0-1.1.9-2 2-2h32"/><path d="M5 19.204v-8.121h5.85v1.525H6.64v1.836h3.614v1.468H6.64v1.778h4.21v1.514H5zm6.982.031v-8.12h5.782v1.525h-4.141v2.099h3.498v1.514h-3.498v2.982h-1.64zm8.88-.085v-6.51h-2.478v-1.526h6.618v1.526h-2.489v6.51h-1.652z" fill="#1E055B"/><path d="M32.143 13.864h-3.34a.785.785 0 000 1.57h3.34a.785.785 0 000-1.57zM25.223 4.285L23.78 7.76a.785.785 0 001.45.603l1.443-3.476a.785.785 0 00-1.45-.602zM31.674 9.724l-3.623 1.5a.785.785 0 00.6 1.452l3.624-1.501a.785.785 0 00-.601-1.451zM30.184 5.095l-3.912 3.913a.785.785 0 001.11 1.11l3.913-3.913a.785.785 0 00-1.11-1.11z" fill="#007AF9"/></svg>